<svg width="48" height="48" viewBox="0 0 48 48" fill="none" xmlns="http://www.w3.org/2000/svg">
<g id="Layer 2">
<g id="Color">
<g id="12.Viber">
<path id="Background" d="M24 48C37.2548 48 48 37.2548 48 24C48 10.7452 37.2548 0 24 0C10.7452 0 0 10.7452 0 24C0 37.2548 10.7452 48 24 48Z" fill="#665CAC"/>
<path id="Icon" d="M26.5261 11.3684H21.4735C19.1284 11.3684 16.8794 12.3 15.2211 13.9582C13.5629 15.6164 12.6313 17.8655 12.6313 20.2105V24C12.6306 25.6739 13.1051 27.3136 13.9995 28.7285C14.8939 30.1433 16.1716 31.2753 17.684 31.9926V36.2147C17.6855 36.2971 17.711 36.3772 17.7574 36.4453C17.8038 36.5134 17.8691 36.5664 17.9452 36.598C18.0213 36.6295 18.1049 36.6381 18.1859 36.6227C18.2668 36.6074 18.3415 36.5688 18.4008 36.5116L22.0703 32.8421H26.5261C28.8712 32.8421 31.1202 31.9105 32.7784 30.2523C34.4366 28.5941 35.3682 26.3451 35.3682 24V20.2105C35.3682 17.8655 34.4366 15.6164 32.7784 13.9582C31.1202 12.3 28.8712 11.3684 26.5261 11.3684ZM29.8356 27.9411L28.5724 29.2042C27.2271 30.5211 23.7156 29.0179 20.6208 25.8568C17.5261 22.6958 16.1682 19.1495 17.4629 17.8326L18.7261 16.5695C18.9736 16.3472 19.2955 16.2259 19.6282 16.2294C19.9608 16.2329 20.2801 16.361 20.5229 16.5884L22.3671 18.4832C22.5136 18.6343 22.6192 18.8202 22.6741 19.0234C22.7289 19.2266 22.7312 19.4404 22.6807 19.6447C22.6301 19.8491 22.5285 20.0372 22.3852 20.1914C22.242 20.3456 22.0619 20.4609 21.8619 20.5263C21.5654 20.6173 21.3153 20.819 21.1636 21.0895C21.0119 21.36 20.9702 21.6785 21.0471 21.9789C21.3629 23.3811 23.144 25.1368 24.4703 25.4811C24.7693 25.5523 25.084 25.5121 25.3555 25.3679C25.627 25.2237 25.8366 24.9855 25.945 24.6979C26.0151 24.4973 26.1356 24.3181 26.295 24.1776C26.4543 24.037 26.6472 23.9399 26.855 23.8955C27.0628 23.851 27.2785 23.8609 27.4814 23.924C27.6843 23.9871 27.8675 24.1013 28.0135 24.2558L29.8545 26.1505C30.0756 26.3974 30.1963 26.7181 30.1928 27.0495C30.1893 27.3809 30.0618 27.6989 29.8356 27.9411ZM25.1492 17.3684C25.0236 17.3678 24.8981 17.3752 24.7735 17.3905C24.7185 17.3965 24.6629 17.3917 24.6098 17.3762C24.5568 17.3607 24.5073 17.335 24.4642 17.3004C24.4211 17.2657 24.3852 17.223 24.3586 17.1745C24.332 17.1261 24.3153 17.0728 24.3092 17.0179C24.3032 16.9629 24.3081 16.9074 24.3236 16.8543C24.339 16.8012 24.3648 16.7517 24.3994 16.7086C24.434 16.6655 24.4768 16.6296 24.5252 16.6031C24.5737 16.5765 24.6269 16.5597 24.6819 16.5537C24.837 16.5358 24.9931 16.5274 25.1492 16.5284C26.2668 16.5276 27.339 16.9705 28.1301 17.7598C28.9212 18.5492 29.3665 19.6203 29.3682 20.7379C29.3692 20.8941 29.3608 21.0501 29.3429 21.2053C29.3369 21.2602 29.3201 21.3134 29.2936 21.3619C29.267 21.4104 29.2311 21.4531 29.188 21.4877C29.1449 21.5223 29.0954 21.5481 29.0423 21.5636C28.9893 21.579 28.9337 21.5839 28.8787 21.5779C28.8238 21.5719 28.7705 21.5551 28.7221 21.5285C28.6736 21.5019 28.6309 21.4661 28.5963 21.423C28.5617 21.3799 28.5359 21.3304 28.5204 21.2773C28.5049 21.2242 28.5001 21.1686 28.5061 21.1137C28.5198 20.9889 28.5272 20.8635 28.5282 20.7379C28.5265 19.8431 28.1697 18.9856 27.5361 18.3538C26.9025 17.722 26.044 17.3676 25.1492 17.3684ZM27.6756 20.7379C27.6664 20.8434 27.618 20.9417 27.54 21.0132C27.4619 21.0848 27.3599 21.1245 27.254 21.1245C27.1481 21.1245 27.046 21.0848 26.968 21.0132C26.8899 20.9417 26.8415 20.8434 26.8324 20.7379C26.8324 20.2915 26.6551 19.8634 26.3394 19.5477C26.0238 19.2321 25.5956 19.0547 25.1492 19.0547C25.0908 19.0598 25.032 19.0527 24.9764 19.0338C24.9209 19.0149 24.8699 18.9847 24.8267 18.945C24.7835 18.9054 24.749 18.8572 24.7254 18.8035C24.7018 18.7498 24.6896 18.6918 24.6896 18.6332C24.6896 18.5745 24.7018 18.5165 24.7254 18.4628C24.749 18.4091 24.7835 18.3609 24.8267 18.3213C24.8699 18.2817 24.9209 18.2514 24.9764 18.2325C25.032 18.2137 25.0908 18.2065 25.1492 18.2116C25.8193 18.2116 26.4618 18.4777 26.9356 18.9515C27.4094 19.4253 27.6756 20.0679 27.6756 20.7379ZM30.8871 22.1053C30.8778 22.1627 30.8567 22.2175 30.8252 22.2664C30.7937 22.3153 30.7525 22.3572 30.7041 22.3895C30.6557 22.4217 30.6012 22.4436 30.5439 22.4539C30.4866 22.4641 30.4279 22.4624 30.3713 22.4489C30.3147 22.4354 30.2616 22.4104 30.2151 22.3755C30.1686 22.3405 30.1298 22.2963 30.1012 22.2457C30.0725 22.1951 30.0546 22.1391 30.0486 22.0812C30.0426 22.0234 30.0485 21.9649 30.0661 21.9095C30.1573 21.5278 30.2029 21.1366 30.2019 20.7442C30.2019 19.4042 29.6695 18.119 28.722 17.1715C27.7744 16.2239 26.4893 15.6916 25.1492 15.6916C25.0198 15.6916 24.8871 15.6916 24.7577 15.6916C24.7025 15.6957 24.6471 15.689 24.5945 15.6717C24.542 15.6544 24.4934 15.627 24.4514 15.5909C24.3667 15.518 24.3145 15.4145 24.3061 15.3032C24.2977 15.1918 24.3339 15.0816 24.4068 14.9969C24.4796 14.9122 24.5831 14.86 24.6945 14.8516C24.8461 14.8389 24.9977 14.8326 25.1492 14.8326C26.7138 14.8351 28.2134 15.4584 29.3188 16.5656C30.4242 17.6728 31.045 19.1734 31.045 20.7379C31.0452 21.1982 30.9922 21.6571 30.8871 22.1053Z" fill="white"/>
</g>
</g>
</g>
</svg>
