<svg width="48" height="48" viewBox="0 0 48 48" fill="none" xmlns="http://www.w3.org/2000/svg">
<g id="Layer 2">
<g id="Color">
<g id="08.Whatsapp">
<path id="Background" d="M24 48C37.2548 48 48 37.2548 48 24C48 10.7452 37.2548 0 24 0C10.7452 0 0 10.7452 0 24C0 37.2548 10.7452 48 24 48Z" fill="#4CAF50"/>
<path id="Icon" d="M23.9998 11.3684C21.6727 11.3693 19.3911 12.013 17.4067 13.2286C15.4223 14.4441 13.8122 16.1842 12.7542 18.2569C11.6961 20.3295 11.2312 22.6542 11.4107 24.9743C11.5902 27.2945 12.4071 29.52 13.7714 31.4053L12.1925 36.0979L17.0525 34.5442C18.6966 35.6287 20.5716 36.3138 22.5276 36.5446C24.4836 36.7754 26.4666 36.5455 28.318 35.8735C30.1694 35.2014 31.8379 34.1057 33.1904 32.6738C34.5429 31.242 35.5418 29.5137 36.1074 27.6271C36.673 25.7404 36.7895 23.7476 36.4477 21.8079C36.1059 19.8682 35.3152 18.0353 34.1388 16.4556C32.9624 14.8758 31.4329 13.5931 29.6725 12.7098C27.912 11.8266 25.9694 11.3672 23.9998 11.3684ZM30.7135 29.2326L29.3682 30.5779C27.9535 31.9926 24.2019 30.4358 20.8767 27.1042C17.5514 23.7726 16.0609 20.0305 17.4061 18.6316L18.7514 17.2863C19.0119 17.0469 19.3528 16.914 19.7067 16.914C20.0605 16.914 20.4014 17.0469 20.6619 17.2863L22.6451 19.2632C22.8068 19.4204 22.9254 19.6165 22.9896 19.8327C23.0538 20.0489 23.0614 20.278 23.0116 20.4979C22.9618 20.7179 22.8564 20.9214 22.7054 21.089C22.5544 21.2565 22.3629 21.3824 22.1493 21.4547C21.8341 21.5554 21.5699 21.7738 21.4117 22.0644C21.2535 22.355 21.2134 22.6954 21.2998 23.0147C21.6535 24.4989 23.564 26.34 24.9819 26.6937C25.2996 26.7604 25.6307 26.7102 25.9143 26.5524C26.198 26.3946 26.4152 26.1398 26.5261 25.8347C26.5976 25.618 26.7241 25.4235 26.8932 25.2702C27.0622 25.1169 27.2682 25.0101 27.4909 24.9602C27.7135 24.9102 27.9454 24.9189 28.1637 24.9852C28.3821 25.0516 28.5795 25.1735 28.7367 25.3389L30.7167 27.3221C30.9557 27.583 31.088 27.9242 31.0874 28.278C31.0868 28.6318 30.9534 28.9725 30.7135 29.2326Z" fill="white"/>
</g>
</g>
</g>
</svg>
