<svg width="48" height="48" viewBox="0 0 48 48" fill="none" xmlns="http://www.w3.org/2000/svg">
<g id="Layer_2_1_">
<g id="Color_1_">
<path id="_47.VK_1_" d="M24 0C10.7452 0 0 10.7452 0 24C0 37.2548 10.7452 48 24 48C37.2548 48 48 37.2548 48 24C48 10.7452 37.2548 0 24 0ZM38.0843 32.7695L33.9442 32.8263C33.9442 32.8263 33.0537 33.0031 31.8853 32.1947C30.3348 31.1304 28.8758 28.3673 27.739 28.721C26.6022 29.0746 26.6212 31.5631 26.6212 31.5631C26.6248 31.8549 26.5352 32.1404 26.3654 32.3779C26.1264 32.5826 25.8317 32.7113 25.5191 32.7473H23.6843C23.6843 32.7473 19.5791 32.9905 15.9949 29.2452C12.0538 25.1779 8.58328 17.0526 8.58328 17.0526C8.58328 17.0526 8.37891 16.5813 8.60222 16.2631C8.79525 15.988 9.27131 15.9585 9.51169 15.9473C10.5479 15.8989 13.6612 15.9189 13.6612 15.9189C13.9216 15.9125 14.0966 15.9262 14.419 16.0673C14.6962 16.2043 14.9063 16.4083 15.0412 16.7368C15.5201 17.9295 16.0761 19.0898 16.7054 20.2105C18.5559 23.4095 19.4181 24.1073 20.0465 23.7663C20.9591 23.2673 20.6781 19.2473 20.6781 19.2473C20.6781 19.2473 20.6781 17.7852 20.217 17.1379C19.8699 16.7324 19.3805 16.4758 18.8497 16.4211C18.6002 16.3863 19.0107 15.8084 19.5413 15.5495C20.337 15.1579 21.7455 15.1579 23.4065 15.1579C24.1374 15.1303 24.8687 15.2048 25.5791 15.3789C27.1075 15.7484 26.5897 17.1695 26.5897 20.5863C26.5897 21.6789 26.3907 23.22 27.1802 23.7442C27.5212 23.962 28.3486 23.7758 30.4265 20.2515C31.0894 19.0853 31.6646 17.8715 32.1475 16.6199C32.2405 16.421 32.3816 16.2485 32.5581 16.1178C32.7446 16.0249 32.9543 15.9887 33.1613 16.0135L37.8223 15.9819C37.8223 15.9819 39.2212 15.8146 39.4486 16.4493C39.6759 17.0841 38.9243 18.6598 37.0202 21.1861C33.8939 25.3545 33.5465 24.9756 36.1423 27.3724C38.6213 29.6745 39.136 30.7956 39.2212 30.9345C40.2505 32.6337 38.0843 32.7695 38.0843 32.7695Z" fill="#4C75A3"/>
</g>
</g>
</svg>
